<?xml version="1.0" encoding="iso-8859-1"?>
<!-- Generator: Adobe Illustrator 19.0.0, SVG Export Plug-In . SVG Version: 6.00 Build 0)  -->
<svg version="1.1" id="Layer_1" xmlns="http://www.w3.org/2000/svg" xmlns:xlink="http://www.w3.org/1999/xlink" x="0px" y="0px"
	 viewBox="0 0 330 330" style="enable-background:new 0 0 330 330;" xml:space="preserve">
<g id="XMLID_241_">
	<path id="XMLID_242_" d="M277.774,113.366c-11.358-5.679-24.092-10.378-37.774-14.063v31.154v4.379c0,8.284-6.716,15-15,15
		s-15-6.716-15-15V123.4V93.111c-9.739-1.45-19.769-2.44-30-2.926v30.014v14.617c0,8.284-6.716,15-15,15s-15-6.716-15-15v-14.617
		V90.185c-10.231,0.486-20.261,1.477-30,2.926V123.4v11.436c0,8.284-6.716,15-15,15s-15-6.716-15-15v-4.379V99.303
		c-13.683,3.685-26.416,8.384-37.774,14.063C18.548,130.205,0,153.804,0,179.815c0,9.155,3.058,22.428,17.622,33.671
		c9.035,6.975,21.344,12.371,37.629,16.495c26.127,6.617,62.026,9.834,109.749,9.834s83.622-3.217,109.749-9.834
		c16.285-4.124,28.594-9.52,37.629-16.495C326.942,202.243,330,188.97,330,179.815C330,153.804,311.452,130.205,277.774,113.366z"/>
</g>
<g>
</g>
<g>
</g>
<g>
</g>
<g>
</g>
<g>
</g>
<g>
</g>
<g>
</g>
<g>
</g>
<g>
</g>
<g>
</g>
<g>
</g>
<g>
</g>
<g>
</g>
<g>
</g>
<g>
</g>
</svg>
