<?xml version="1.0" encoding="iso-8859-1"?>
<!-- Generator: Adobe Illustrator 18.0.0, SVG Export Plug-In . SVG Version: 6.00 Build 0)  -->
<!DOCTYPE svg PUBLIC "-//W3C//DTD SVG 1.1//EN" "http://www.w3.org/Graphics/SVG/1.1/DTD/svg11.dtd">
<svg version="1.1" id="Capa_1" xmlns="http://www.w3.org/2000/svg" xmlns:xlink="http://www.w3.org/1999/xlink" x="0px" y="0px"
	 viewBox="0 0 60 60" style="enable-background:new 0 0 60 60;" xml:space="preserve">
<g>
	<path d="M28,32h3c2.206,0,4-1.794,4-4s-1.794-4-4-4h-5v11h2V32z M28,26h3c1.103,0,2,0.897,2,2s-0.897,2-2,2h-3V26z"/>
	<path d="M42.228,49.644c-0.281-0.385-0.281-0.902,0-1.287c0.67-0.915,0.916-2.036,0.692-3.155
		c-0.024-0.119-0.068-0.229-0.102-0.344C42.926,44.566,43,44.281,43,44v-0.353c0-1.756-0.39-3.526-1.158-5.263
		c-2.465-5.571-2.457-10.149,0.026-15.802C42.619,20.872,43,19.122,43,17.381V16c0-0.81-0.368-1.567-1.093-2.26
		C42.595,12.657,43,11.376,43,10c0-3.859-3.141-7-7-7h-3V0h-6v3h-3c-3.859,0-7,3.141-7,7c0,1.376,0.405,2.656,1.093,3.74
		C17.368,14.432,17,15.19,17,16v1.375c0,1.745,0.383,3.499,1.138,5.213c2.479,5.634,2.482,10.212,0.015,15.803
		C17.388,40.123,17,41.89,17,43.64V44c0,0.28,0.074,0.566,0.182,0.857c-0.034,0.114-0.078,0.224-0.102,0.343
		c-0.224,1.12,0.022,2.241,0.692,3.156c0.281,0.385,0.281,0.902,0,1.287c-0.631,0.861-0.87,1.906-0.712,2.962
		C17.027,52.751,17,52.906,17,53.084V60h26v-6.916c0-0.177-0.028-0.333-0.061-0.479C43.098,51.55,42.859,50.505,42.228,49.644z
		 M19.306,53.048c-0.116-0.186-0.203-0.392-0.253-0.614l-0.018-0.081c-0.092-0.545,0.028-1.086,0.351-1.528
		c0.188-0.257,0.328-0.536,0.428-0.825H23c0.553,0,1-0.447,1-1s-0.447-1-1-1h-3.187c-0.099-0.289-0.24-0.568-0.428-0.825
		c-0.335-0.457-0.457-1.02-0.345-1.585c0.021-0.104,0.053-0.204,0.092-0.302l0.026-0.061c0.003-0.007,0.008-0.014,0.011-0.021
		c0.059-0.135,0.142-0.252,0.226-0.368c0.311-0.402,0.781-0.694,1.317-0.796c0.04-0.006,0.078-0.014,0.119-0.018
		C20.931,44.012,21.03,44,21.132,44h17.736c0.102,0,0.201,0.012,0.3,0.025c0.04,0.004,0.079,0.012,0.119,0.018
		c0.536,0.102,1.006,0.394,1.318,0.797c0.083,0.115,0.165,0.23,0.223,0.363c0.004,0.01,0.01,0.018,0.015,0.028l0.024,0.056
		c0.039,0.098,0.072,0.199,0.092,0.304c0.112,0.564-0.01,1.127-0.345,1.584c-0.188,0.257-0.328,0.536-0.428,0.825H31
		c-0.553,0-1,0.447-1,1s0.447,1,1,1h9.187c0.099,0.289,0.24,0.568,0.428,0.825c0.324,0.442,0.444,0.984,0.351,1.528l-0.018,0.08
		c-0.05,0.221-0.137,0.427-0.253,0.613C40.317,53.618,39.625,54,38.869,54H21.131C20.375,54,19.683,53.618,19.306,53.048z M29,2h2v1
		h-2V2z M24,5h3h6h3c2.757,0,5,2.243,5,5c0,1.302-0.513,2.48-1.332,3.371c-0.08,0.087-0.159,0.173-0.244,0.254
		c-0.161,0.152-0.331,0.292-0.511,0.422c-0.086,0.062-0.174,0.121-0.264,0.177c-0.2,0.126-0.406,0.242-0.623,0.339
		c-0.072,0.032-0.147,0.059-0.221,0.088c-0.247,0.096-0.5,0.181-0.764,0.238c-0.038,0.008-0.078,0.012-0.117,0.019
		C36.625,14.963,36.317,15,36,15H24c-0.317,0-0.625-0.037-0.925-0.094c-0.039-0.007-0.078-0.011-0.117-0.019
		c-0.264-0.056-0.517-0.141-0.764-0.238c-0.074-0.029-0.149-0.055-0.221-0.088c-0.217-0.097-0.423-0.213-0.623-0.339
		c-0.089-0.057-0.178-0.115-0.264-0.177c-0.179-0.13-0.35-0.27-0.511-0.422c-0.085-0.08-0.165-0.167-0.244-0.254
		C19.513,12.48,19,11.302,19,10C19,7.243,21.243,5,24,5z M19.982,39.198c2.721-6.163,2.717-11.209-0.015-17.416
		C19.325,20.323,19,18.841,19,17.375V16c0-0.215,0.14-0.471,0.399-0.738c0.311,0.272,0.646,0.516,1.001,0.73
		c0.01,0.006,0.019,0.012,0.029,0.017c0.163,0.097,0.33,0.187,0.501,0.271c0.026,0.013,0.053,0.025,0.079,0.038
		c0.157,0.075,0.317,0.144,0.481,0.208c0.045,0.017,0.091,0.033,0.136,0.05c0.149,0.054,0.299,0.105,0.452,0.149
		c0.069,0.02,0.139,0.036,0.209,0.054c0.134,0.034,0.267,0.068,0.404,0.094c0.107,0.021,0.216,0.034,0.325,0.05
		c0.106,0.015,0.21,0.034,0.317,0.044C23.553,16.988,23.776,17,24,17h12c0.224,0,0.447-0.012,0.668-0.034
		c0.107-0.01,0.211-0.029,0.317-0.044c0.108-0.016,0.217-0.029,0.324-0.05c0.137-0.026,0.271-0.06,0.405-0.094
		c0.07-0.018,0.14-0.034,0.209-0.054c0.153-0.044,0.303-0.095,0.452-0.149c0.045-0.016,0.091-0.032,0.136-0.05
		c0.164-0.063,0.323-0.133,0.481-0.208c0.026-0.013,0.053-0.025,0.079-0.038c0.171-0.084,0.338-0.174,0.501-0.271
		c0.009-0.006,0.019-0.011,0.028-0.017c0.356-0.215,0.691-0.458,1.002-0.73C40.86,15.529,41,15.785,41,16v1.381
		c0,1.462-0.324,2.942-0.964,4.397c-2.734,6.226-2.741,11.271-0.022,17.415c0.485,1.098,0.793,2.206,0.92,3.307
		C40.354,42.179,39.691,42,39,42h-0.132H21.132H21c-0.691,0-1.354,0.179-1.935,0.501C19.191,41.401,19.498,40.295,19.982,39.198z
		 M41,58H19v-2.546C19.595,55.802,20.281,56,21,56h0.131h17.738H39c0.719,0,1.405-0.198,2-0.546V58z"/>
</g>
<g>
</g>
<g>
</g>
<g>
</g>
<g>
</g>
<g>
</g>
<g>
</g>
<g>
</g>
<g>
</g>
<g>
</g>
<g>
</g>
<g>
</g>
<g>
</g>
<g>
</g>
<g>
</g>
<g>
</g>
</svg>
