<?xml version="1.0" encoding="iso-8859-1"?>
<!-- Generator: Adobe Illustrator 18.0.0, SVG Export Plug-In . SVG Version: 6.00 Build 0)  -->
<!DOCTYPE svg PUBLIC "-//W3C//DTD SVG 1.1//EN" "http://www.w3.org/Graphics/SVG/1.1/DTD/svg11.dtd">
<svg version="1.1" id="Capa_1" xmlns="http://www.w3.org/2000/svg" xmlns:xlink="http://www.w3.org/1999/xlink" x="0px" y="0px"
	 viewBox="0 0 293.806 293.806" style="enable-background:new 0 0 293.806 293.806;" xml:space="preserve">
<g>
	<rect x="17.226" y="253.806" width="259.353" height="40"/>
	<path d="M282.454,137.683c-3.999-18.229-15.083-32.794-30.412-39.961c-4.71-2.202-9.71-3.664-14.868-4.37
		c-8.381-16.454-22.173-28.215-38.793-32.534c-5.35-1.391-10.778-1.984-16.204-1.808l0.966-3.669L146.904,0l-36.242,55.341
		l0.966,3.669c-5.423-0.178-10.857,0.419-16.203,1.808c-16.619,4.319-30.412,16.08-38.793,32.534
		c-5.158,0.706-10.158,2.168-14.867,4.37c-15.33,7.167-26.414,21.732-30.413,39.961c-3.377,15.399-1.606,32.348,4.966,48.114
		c0.262,5.447,0.648,17.885,0.915,28.511l0.489,19.498h238.857h19.505l0.489-19.498c0.267-10.626,0.653-23.064,0.916-28.51
		C284.062,170.025,285.831,153.08,282.454,137.683z M71.703,211.033l-20.153-30.153l20.153-30.153l20.153,30.153L71.703,211.033z
		 M146.903,175.033l-20.153-30.153l20.153-30.153l20.153,30.153L146.903,175.033z M222.102,211.033l-20.153-30.153l20.153-30.153
		l20.152,30.153L222.102,211.033z"/>
</g>
<g>
</g>
<g>
</g>
<g>
</g>
<g>
</g>
<g>
</g>
<g>
</g>
<g>
</g>
<g>
</g>
<g>
</g>
<g>
</g>
<g>
</g>
<g>
</g>
<g>
</g>
<g>
</g>
<g>
</g>
</svg>
